<svg width="118" height="136" viewBox="0 0 118 136" fill="none" xmlns="http://www.w3.org/2000/svg">
<path d="M2.94362 105.761L46.8613 131.283C47.7921 131.826 49.2917 131.826 50.2224 131.292L116.954 92.7594C117.885 92.2251 117.885 91.3546 116.954 90.8117L73.0362 65.2895C72.114 64.7552 70.6144 64.7552 69.6836 65.2895L2.95225 103.813C2.02144 104.356 2.01282 105.227 2.94362 105.761Z" fill="#384E85"/>
<path d="M53.3288 109.251C52.7549 109.582 52.7582 110.122 53.3285 110.453L65.1683 117.334C65.7385 117.665 66.6705 117.669 67.2445 117.337L90.576 103.867C91.15 103.536 91.1466 102.996 90.5764 102.664L78.7365 95.7838C78.1663 95.4525 77.2343 95.4488 76.6604 95.7801L53.3288 109.251Z" fill="#2E4277"/>
<path d="M2.25415 104.796L2.26277 108.312C2.26277 108.657 2.49543 109.01 2.95222 109.277L46.8699 134.799C47.8007 135.334 49.3003 135.334 50.2311 134.799L116.962 96.2757C117.428 96.0085 117.661 95.6552 117.661 95.2932L117.652 91.7855C117.652 92.1389 117.419 92.4922 116.954 92.7594L50.2224 131.292C49.2917 131.826 47.7921 131.826 46.8613 131.283L2.94362 105.761C2.47823 105.494 2.25415 105.149 2.25415 104.796Z" fill="#2E4277"/>
<path d="M69.5537 17.9696C70.4836 17.4327 71.2399 17.8637 71.243 18.9322L71.3619 62.3826C71.3649 63.4449 70.6136 64.7526 69.6837 65.2895L3.91384 103.258C2.98394 103.795 2.22763 103.358 2.2246 102.295L2.10566 58.8451C2.10264 57.7765 2.85402 56.4751 3.78393 55.9382L69.5537 17.9696Z" fill="#2E4277"/>
<path d="M0.339478 57.8218L0.460157 101.27C0.460157 101.796 0.649774 102.175 0.951418 102.348L2.71536 103.373C2.41369 103.201 2.2241 102.822 2.2241 102.296L2.10342 58.8476C2.10342 57.7789 2.85321 56.4776 3.78401 55.9347L69.5541 17.9703C70.0195 17.7031 70.4418 17.6773 70.752 17.8496L68.9881 16.8238C68.6865 16.6515 68.2556 16.6773 67.7902 16.9445L2.02004 54.9174C1.08926 55.4517 0.339478 56.7531 0.339478 57.8218Z" fill="#B7C5FD"/>
<path d="M4.47946 58.2274L4.5939 100.13L68.988 62.9552L68.8736 21.053L4.47946 58.2274Z" fill="white"/>
<path d="M16.4113 102.61L12.1959 105.06L10.3801 104.012L14.5954 101.562L16.4113 102.61Z" fill="#B7C5FD"/>
<path d="M61.7679 76.252L57.5468 78.705L55.7309 77.6566L59.952 75.2036L61.7679 76.252Z" fill="#B7C5FD"/>
<path d="M73.107 69.6624L68.8859 72.1154L67.07 71.0671L71.2911 68.614L73.107 69.6624Z" fill="#B7C5FD"/>
<path d="M65.5415 85.0021L61.3262 87.4518L57.578 85.2878L61.7934 82.8381L65.5415 85.0021Z" fill="#B7C5FD"/>
<path d="M86.3326 83.8698L82.1115 86.3228L78.3575 84.1554L82.5786 81.7024L86.3326 83.8698Z" fill="#B7C5FD"/>
<path d="M92.0051 80.5733L87.784 83.0263L79.304 78.1304L83.5251 75.6774L92.0051 80.5733Z" fill="#B7C5FD"/>
<path d="M77.833 72.391L70.05 76.914L66.296 74.7466L74.079 70.2236L77.833 72.391Z" fill="#B7C5FD"/>
<path d="M68.6044 77.754L64.3833 80.2071L60.6293 78.0397L64.8504 75.5867L68.6044 77.754Z" fill="#B7C5FD"/>
<path d="M82.5531 75.1161L72.6596 80.8656L68.9114 78.7016L78.805 72.9521L82.5531 75.1161Z" fill="#B7C5FD"/>
<path d="M71.214 81.7058L66.9929 84.1588L63.2447 81.9948L67.4658 79.5417L71.214 81.7058Z" fill="#B7C5FD"/>
<path d="M75.9399 84.4343L71.7189 86.8874L67.9648 84.72L72.186 82.267L75.9399 84.4343Z" fill="#B7C5FD"/>
<path d="M62.932 81.0505L58.7108 83.5036L54.9568 81.3362L59.178 78.8832L62.932 81.0505Z" fill="#B7C5FD"/>
<path d="M56.0954 79.5485L51.8801 81.9982L50.0642 80.9498L54.2795 78.5001L56.0954 79.5485Z" fill="#B7C5FD"/>
<path d="M50.4287 82.8416L46.2076 85.2946L44.3918 84.2463L48.6128 81.7932L50.4287 82.8416Z" fill="#B7C5FD"/>
<path d="M53.2617 97.6134L49.0405 100.066L45.2866 97.8991L49.5077 95.446L53.2617 97.6134Z" fill="#B7C5FD"/>
<path d="M44.7562 86.1381L40.5409 88.5878L38.725 87.5394L42.9404 85.0897L44.7562 86.1381Z" fill="#B7C5FD"/>
<path d="M51.5928 87.6401L47.3775 90.0898L43.6235 87.9225L47.8388 85.4728L51.5928 87.6401Z" fill="#B7C5FD"/>
<path d="M39.0896 89.4312L34.8685 91.8842L33.0526 90.8358L37.2737 88.3828L39.0896 89.4312Z" fill="#B7C5FD"/>
<path d="M45.9261 90.9333L41.705 93.3863L37.951 91.2189L42.1721 88.7659L45.9261 90.9333Z" fill="#B7C5FD"/>
<path d="M54.2023 91.5919L49.987 94.0415L46.2389 91.8775L50.4542 89.4279L54.2023 91.5919Z" fill="#B7C5FD"/>
<path d="M33.4229 92.7243L29.2018 95.1773L27.3859 94.1289L31.607 91.6759L33.4229 92.7243Z" fill="#B7C5FD"/>
<path d="M40.2594 94.2264L36.0384 96.6795L32.2844 94.5121L36.5054 92.0591L40.2594 94.2264Z" fill="#B7C5FD"/>
<path d="M58.9284 94.3205L54.7131 96.7701L50.959 94.6027L55.1744 92.1531L58.9284 94.3205Z" fill="#B7C5FD"/>
<path d="M48.5357 94.885L44.3146 97.338L40.5664 95.174L44.7875 92.7209L48.5357 94.885Z" fill="#B7C5FD"/>
<path d="M27.7504 96.0208L23.5293 98.4738L21.7134 97.4255L25.9346 94.9724L27.7504 96.0208Z" fill="#B7C5FD"/>
<path d="M34.5869 97.5228L30.3659 99.9759L26.6118 97.8085L30.833 95.3555L34.5869 97.5228Z" fill="#B7C5FD"/>
<path d="M42.869 98.178L38.6479 100.631L34.8997 98.4671L39.1208 96.014L42.869 98.178Z" fill="#B7C5FD"/>
<path d="M28.9203 100.816L24.6992 103.269L20.9452 101.102L25.1663 98.6486L28.9203 100.816Z" fill="#B7C5FD"/>
<path d="M47.595 100.907L43.3739 103.36L39.6199 101.192L43.841 98.7393L47.595 100.907Z" fill="#B7C5FD"/>
<path d="M37.1965 101.475L32.9754 103.928L29.2273 101.764L33.4484 99.3105L37.1965 101.475Z" fill="#B7C5FD"/>
<path d="M41.9225 104.203L37.7014 106.656L33.9474 104.489L38.1685 102.036L41.9225 104.203Z" fill="#B7C5FD"/>
<path d="M63.8972 96.9078L42.4274 109.385L38.6734 107.217L60.1432 94.7405L63.8972 96.9078Z" fill="#B7C5FD"/>
<path d="M36.2558 107.496L32.0347 109.949L28.2807 107.782L32.5018 105.329L36.2558 107.496Z" fill="#B7C5FD"/>
<path d="M31.5299 104.768L21.6421 110.514L17.8939 108.35L27.7817 102.604L31.5299 104.768Z" fill="#B7C5FD"/>
<path d="M30.5834 110.793L26.3681 113.242L22.6141 111.075L26.8294 108.625L30.5834 110.793Z" fill="#B7C5FD"/>
<path d="M40.9818 110.225L31.094 115.971L27.34 113.804L37.2278 108.057L40.9818 110.225Z" fill="#B7C5FD"/>
<path d="M22.0838 99.3139L17.8626 101.767L16.0468 100.719L20.2679 98.2655L22.0838 99.3139Z" fill="#B7C5FD"/>
<path d="M67.4345 72.9589L63.2135 75.4119L61.3976 74.3635L65.6187 71.9105L67.4345 72.9589Z" fill="#B7C5FD"/>
<path d="M57.2653 84.3436L53.0442 86.7967L49.2902 84.6293L53.5113 82.1763L57.2653 84.3436Z" fill="#B7C5FD"/>
<path d="M69.3268 93.7523L65.1057 96.2054L61.3517 94.038L65.5728 91.585L69.3268 93.7523Z" fill="#B7C5FD"/>
<path d="M64.6008 91.0238L60.3797 93.4769L56.6257 91.3095L60.8468 88.8564L64.6008 91.0238Z" fill="#B7C5FD"/>
<path d="M59.8748 88.2953L55.6537 90.7484L51.9056 88.5844L56.1267 86.1313L59.8748 88.2953Z" fill="#B7C5FD"/>
<path d="M80.6659 87.1629L76.4448 89.6159L72.6909 87.4485L76.9119 84.9955L80.6659 87.1629Z" fill="#B7C5FD"/>
<path d="M74.9934 90.4592L70.7781 92.9089L67.0241 90.7416L71.2395 88.2919L74.9934 90.4592Z" fill="#B7C5FD"/>
<path d="M23.2478 104.112L16.922 107.789L13.1679 105.621L19.4938 101.945L23.2478 104.112Z" fill="#B7C5FD"/>
<path d="M65.2178 1.76855L65.3392 44.5912L10.564 76.2171L10.4426 33.3945L65.2178 1.76855Z" fill="#384E85"/>
<path d="M65.2069 1.77473L63.5465 0.800049L8.77084 32.415L8.89819 75.2375L10.564 76.2152L10.4426 33.3943L65.2069 1.77473Z" fill="#2E4277"/>
<path d="M37.8169 34.3054L65.3392 44.5912L10.564 76.2171L37.8169 34.3054Z" fill="#47558F"/>
<path d="M37.8065 30.6417L65.3392 44.5912L37.8169 34.3054L10.564 76.2171L65.2785 44.5912L10.564 76.2171L37.8065 30.6417Z" fill="#2B3C67"/>
<path d="M65.2178 1.76855L37.9649 43.6803L10.4426 33.3945L65.2178 1.76855Z" fill="#384E85"/>
<path d="M65.2178 1.76855L37.9743 46.9776L10.4426 33.3945L37.9649 43.6803L65.2178 1.76855Z" fill="#47558F"/>
</svg>
