<svg width="25" height="24" viewBox="0 0 25 24" fill="none" xmlns="http://www.w3.org/2000/svg">
<path fill-rule="evenodd" clip-rule="evenodd" d="M14.7327 5.01098C14.0254 4.81452 13.2762 4.70902 12.5006 4.70902C8.18567 4.70902 4.68774 7.97406 4.68774 12.0017C4.68774 12.7355 4.80385 13.444 5.01984 14.112L1.44837 17.4585C0.523721 15.8301 0 13.973 0 12.0017C0 5.55745 5.59669 0.333374 12.5006 0.333374C14.5954 0.333374 16.5699 0.814356 18.3042 1.66446L14.7327 5.01098Z" fill="#FBBC05"/>
<path fill-rule="evenodd" clip-rule="evenodd" d="M4.87818 10.4201L0.941528 7.56505C2.81207 3.32121 7.2856 0.333374 12.5067 0.333374C15.0566 0.333374 17.4281 1.04598 19.4052 2.26948L15.7327 5.35774C14.7493 4.94106 13.6571 4.70902 12.5068 4.70902C8.77372 4.70902 5.65216 7.15288 4.87818 10.4201Z" fill="#EA4334"/>
<path fill-rule="evenodd" clip-rule="evenodd" d="M15.7669 5.28406L15.7228 5.35264L15.6979 5.34212L15.7669 5.28406ZM20.1941 21.1952C18.0727 22.7436 15.4019 23.6664 12.5003 23.6664C7.70834 23.6664 3.54618 21.1497 1.44812 17.455L5.0196 14.1085C5.98923 17.1071 8.97156 19.2907 12.5003 19.2907C13.5759 19.2907 14.6007 19.0879 15.5332 18.7209L20.1941 21.1952Z" fill="#34A853"/>
<rect x="13.1499" y="9.30322" width="11.5265" height="4.01098" fill="#4285F4"/>
<path fill-rule="evenodd" clip-rule="evenodd" d="M15.0029 5.07642L15.0032 5.07649V5.08864L15.0029 5.08856V5.07642ZM15.4736 18.7448C15.4936 18.7371 15.5136 18.7293 15.5335 18.7215L20.1936 21.1954C23.1193 19.0598 24.9999 15.7342 24.9999 11.9986C24.9999 11.0699 24.8837 10.1665 24.6641 9.30049H24.5939V13.3113H20.1858C19.7054 15.7784 17.8953 17.8129 15.4736 18.7443V18.7448Z" fill="#4285F4"/>
</svg>
