<svg width="18" height="14" viewBox="0 0 18 14" fill="none" xmlns="http://www.w3.org/2000/svg">
<path d="M16.0819 0.769287H1.918C1.24192 0.769287 0.692261 1.35342 0.692261 2.07142V11.9287C0.692261 12.6467 1.24192 13.2308 1.918 13.2308H16.0819C16.758 13.2308 17.3076 12.6467 17.3076 11.9287V2.07142C17.3076 1.35342 16.758 0.769287 16.0819 0.769287ZM10.8461 7.00027L16.2692 3.08643V10.9137L10.8461 7.00027ZM16.0819 1.80775C16.119 1.80775 16.1565 1.83014 16.1892 1.86361L8.99995 7.05207L1.81075 1.86361C1.84337 1.83014 1.88094 1.80775 1.918 1.80775H16.0819ZM1.73072 10.9137V3.08643L7.15345 7.00001L1.73072 10.9137ZM1.918 12.1924C1.88094 12.1924 1.84337 12.1699 1.81075 12.1365L8.04064 7.64031L8.69639 8.11356C8.71194 8.12484 8.72994 8.12945 8.74634 8.13875C8.76235 8.14783 8.77731 8.15552 8.79409 8.16283C8.86051 8.19186 8.92943 8.21159 8.99928 8.21159C8.99953 8.21159 8.9997 8.21143 8.99995 8.21143C9.00021 8.21143 9.00038 8.21159 9.00063 8.21159C9.07048 8.21159 9.13939 8.19186 9.20582 8.16283C9.2226 8.15552 9.23755 8.14783 9.25357 8.13875C9.26996 8.12945 9.28796 8.12484 9.30351 8.11356L9.95893 7.64052L16.1892 12.1365C16.1565 12.1699 16.119 12.1924 16.0819 12.1924H1.918Z" fill="#B3B3B3"/>
</svg>
