<svg width="34" height="34" viewBox="0 0 34 34" fill="none" xmlns="http://www.w3.org/2000/svg">
<path d="M24.9787 17C24.667 17 24.412 17.255 24.412 17.5667C24.412 21.6523 21.0857 24.9787 17 24.9787C12.9144 24.9787 9.58805 21.6523 9.58805 17.5667C9.58805 17.255 9.33305 17 9.02138 17C8.70971 17 8.45471 17.255 8.45471 17.5667C8.45471 22.0887 11.985 25.789 16.4334 26.0837V30.0333H13.481C13.1694 30.0333 12.9144 30.2883 12.9144 30.6C12.9144 30.9117 13.1694 31.1667 13.481 31.1667H20.5134C20.825 31.1667 21.08 30.9117 21.08 30.6C21.08 30.2883 20.825 30.0333 20.5134 30.0333H17.5667V26.0837C22.015 25.789 25.5454 22.0887 25.5454 17.5667C25.5454 17.255 25.2904 17 24.9787 17Z" fill="white"/>
<path d="M20.706 15.5607C20.3943 15.5607 20.1393 15.8157 20.1393 16.1274C20.1393 16.439 20.3943 16.694 20.706 16.694H22.1453C22.457 16.694 22.712 16.439 22.712 16.1274V8.54537C22.712 5.39471 20.1506 2.83337 17 2.83337C13.8493 2.83337 11.288 5.39471 11.288 8.54537V17.5667C11.288 20.7174 13.8493 23.2787 17 23.2787C19.7936 23.2787 22.219 21.199 22.644 18.445C22.6893 18.1334 22.4796 17.8444 22.168 17.799C21.8563 17.748 21.5673 17.9634 21.522 18.275C21.182 20.485 19.2383 22.151 17 22.151C14.4783 22.151 12.4213 20.0997 12.4213 17.5724V16.6997H13.294C13.6056 16.6997 13.8606 16.4447 13.8606 16.133C13.8606 15.8214 13.6056 15.5664 13.294 15.5664H12.4213V13.6284H13.294C13.6056 13.6284 13.8606 13.3734 13.8606 13.0617C13.8606 12.75 13.6056 12.495 13.294 12.495H12.4213V10.557H13.294C13.6056 10.557 13.8606 10.302 13.8606 9.99037C13.8606 9.67871 13.6056 9.42371 13.294 9.42371H12.4213V8.55104C12.4213 6.01804 14.4783 3.96671 17 3.96671C19.5216 3.96671 21.5786 6.01804 21.5786 8.54537V9.41804H20.706C20.3943 9.41804 20.1393 9.67304 20.1393 9.98471C20.1393 10.2964 20.3943 10.5514 20.706 10.5514H21.5786V12.4894H20.706C20.3943 12.4894 20.1393 12.7444 20.1393 13.056C20.1393 13.3677 20.3943 13.6227 20.706 13.6227H21.5786V15.5607H20.706Z" fill="white"/>
<path d="M25.8174 7.78036C25.5964 8.00136 25.5964 8.35836 25.8174 8.57936C27.3474 10.1094 27.3474 12.597 25.8174 14.127C25.5964 14.348 25.5964 14.705 25.8174 14.926C25.9307 15.0394 26.0724 15.0904 26.2197 15.0904C26.367 15.0904 26.5087 15.0337 26.622 14.926C28.594 12.954 28.594 9.74669 26.622 7.77469C26.3954 7.55936 26.0384 7.55936 25.8174 7.78036Z" fill="white"/>
<path d="M24.2136 13.328C24.327 13.4413 24.4686 13.4923 24.616 13.4923C24.7633 13.4923 24.905 13.4357 25.0183 13.328C26.1063 12.24 26.1063 10.472 25.0183 9.38401C24.7973 9.16301 24.4403 9.16301 24.2193 9.38401C23.9983 9.60501 23.9983 9.96201 24.2193 10.183C24.8653 10.829 24.8653 11.8773 24.2193 12.5233C23.9926 12.7443 23.9926 13.107 24.2136 13.328Z" fill="white"/>
<path d="M8.18266 8.57937C8.40366 8.35837 8.40366 8.00137 8.18266 7.78037C7.96166 7.55937 7.60466 7.55937 7.38366 7.78037C5.41166 9.75237 5.41166 12.9597 7.38366 14.9317C7.497 15.045 7.63866 15.096 7.786 15.096C7.93333 15.096 8.075 15.0394 8.18833 14.9317C8.40933 14.7107 8.40933 14.3537 8.18833 14.1327C6.65266 12.597 6.65266 10.1094 8.18266 8.57937Z" fill="white"/>
<path d="M9.78639 9.38401C9.56539 9.16301 9.20839 9.16301 8.98739 9.38401C7.89939 10.472 7.89939 12.24 8.98739 13.328C9.10072 13.4413 9.24239 13.4923 9.38972 13.4923C9.53705 13.4923 9.67872 13.4357 9.79205 13.328C10.0131 13.107 10.0131 12.75 9.79205 12.529C9.14605 11.883 9.14605 10.8347 9.79205 10.1887C10.0074 9.96201 10.0074 9.60501 9.78639 9.38401Z" fill="white"/>
<line x1="27.3536" y1="4.35355" x2="6.35355" y2="25.3536" stroke="white"/>
</svg>
