<svg width="80" height="132" viewBox="0 0 80 132" fill="none" xmlns="http://www.w3.org/2000/svg">
<path d="M62.7354 17.6547C62.7036 6.43363 55.2368 1.47066 45.7292 5.82079V7.62738C54.381 3.7615 61.1475 8.31993 61.1766 18.5547L61.8261 18.1898L62.8098 20.4817L62.7354 17.6547Z" fill="#6BB5FB"/>
<path d="M58.0215 15.9071C58.982 15.3491 60.3122 15.4278 61.7807 16.2757C64.6991 17.9606 67.056 22.0428 67.0464 25.3963C67.0417 27.0621 66.4539 28.2343 65.5056 28.7853L63.8001 29.7764C64.7483 29.2253 65.3361 28.0536 65.3408 26.3878C65.3504 23.0342 62.9935 18.9517 60.0752 17.2667C58.6066 16.4192 57.2764 16.3402 56.3159 16.8981L58.0215 15.9071Z" fill="#6BB5FB"/>
<path d="M54.1277 15.3953C55.404 14.654 57.1715 14.7584 59.1227 15.8851C63.0004 18.1239 66.132 23.5479 66.1193 28.0038C66.113 30.2171 65.332 31.7746 64.072 32.5068L60.2301 34.7392C61.49 34.007 62.2711 32.4501 62.2773 30.2368C62.29 25.7809 59.1584 20.3563 55.2808 18.1176C53.3295 16.9914 51.562 16.8864 50.2858 17.6278L54.1277 15.3953Z" fill="#2E4277"/>
<path d="M55.2807 18.1177C51.4031 15.8789 48.2511 17.6752 48.2384 22.1311C48.2258 26.5865 51.3574 32.0106 55.235 34.2494C59.1127 36.4882 62.2647 34.6919 62.2774 30.2364C62.29 25.7806 59.1584 20.3565 55.2807 18.1177Z" fill="#2E4277"/>
<path d="M55.1068 20.6206C52.4325 19.0766 50.2586 20.3155 50.2499 23.3886C50.2412 26.4614 52.4009 30.2023 55.0753 31.7464C57.7496 33.2904 59.9235 32.0515 59.9322 28.9787C59.9409 25.9056 57.7812 22.1647 55.1068 20.6206Z" fill="#1B2A4F"/>
<path d="M55.762 30.9415C53.0876 29.3974 50.9279 25.6566 50.9366 22.5837C50.939 21.7187 51.1131 20.9991 51.4215 20.4459C50.6953 21.0003 50.2539 22.0088 50.25 23.3886C50.2413 26.4614 52.401 30.2024 55.0753 31.7464C56.997 32.8559 58.6603 32.5284 59.4475 31.1162C58.5563 31.7966 57.2356 31.7923 55.762 30.9415Z" fill="#384E85"/>
<path d="M50.2993 4.052C53.4207 5.86492 55.358 9.71741 55.3725 15.1781L55.4457 18.0086L61.2492 21.3803L61.1761 18.5571C61.1615 13.0891 59.2243 9.23659 56.1028 7.42368L50.2993 4.052Z" fill="#9AADFD"/>
<path d="M60.2378 35.5205C59.9323 42.4808 58.9595 48.5131 58.9595 48.5131C58.4842 55.0624 60.2421 59.9233 58.396 61.707C58.2911 67.0434 56.63 74.0788 56.63 74.0788L38.672 75.1086L27.5922 54.7655C29.2894 49.1462 27.7254 49.0514 27.3105 47.0229C27.2274 46.6172 27.1686 46.3987 27.1686 46.3987C28.4574 52.5114 24.1719 26.0955 29.4236 17.5016C33.942 10.108 59.9685 10.5795 61.3069 19.4494C62.5696 26.3682 62.471 29.5842 60.2378 35.5205Z" fill="#D9DDF6"/>
<path d="M61.1766 18.5546C61.1642 14.1767 59.919 10.8374 57.8208 8.75177C55.0138 5.96154 52.9486 3.34256 42.5217 2.32876C6.01021 -1.22122 21.2522 43.7258 21.2522 43.7258L29.4264 44.2716C28.6614 23.727 35.5166 21.9096 38.8846 22.2355C41.3864 22.4776 43.9037 22.6379 46.3906 22.2724C51.7672 21.4818 54.475 19.5423 57.1215 16.8495C57.6358 16.3263 58.5094 16.4653 58.8706 17.1039C62.1003 22.8181 60.2378 35.5204 60.2378 35.5204C64.5181 28.1606 61.1766 18.5546 61.1766 18.5546Z" fill="#384E85"/>
<path d="M23.5174 37.9958C24.7937 37.2545 26.5612 30.7186 28.5124 31.8453C32.3901 34.0841 35.5216 39.5081 35.509 43.964C35.5027 46.1773 34.7217 47.7348 33.4617 48.467L29.6199 50.6994C30.8797 49.9672 31.6608 48.4103 31.667 46.197C31.6797 41.7411 28.5482 36.3165 24.6705 34.0778C22.7192 32.9516 20.9517 32.8466 19.6755 33.588L23.5174 37.9958Z" fill="#384E85"/>
<path d="M24.6705 34.0779C20.7928 31.8391 17.6408 33.6354 17.6282 38.0913C17.6155 42.5467 20.7471 47.9708 24.6247 50.2096C28.5024 52.4484 31.6544 50.6521 31.6671 46.1967C31.6797 41.7408 28.5482 36.3167 24.6705 34.0779Z" fill="#1B2A4F"/>
<path d="M20.2644 36.0187C21.2249 35.4607 22.5552 35.5393 24.0237 36.3873C26.9421 38.0722 29.2989 42.1544 29.2894 45.5079C29.2847 47.1737 28.6969 48.3459 27.7486 48.8969L25.5666 50.1648C26.5148 49.6138 27.1026 48.442 27.1073 46.7763C27.1169 43.4227 24.76 39.3401 21.8417 37.6552C20.3731 36.8076 19.0429 36.7286 18.0824 37.2866L20.2644 36.0187Z" fill="#6BB5FB"/>
<path d="M21.8416 37.6554C18.9233 35.9705 16.551 37.3224 16.5415 40.6759C16.532 44.0291 18.8889 48.1114 21.8072 49.7963C24.7256 51.4812 27.0978 50.1293 27.1073 46.7761C27.1169 43.4226 24.76 39.3403 21.8416 37.6554Z" fill="#B7C5FD"/>
<path d="M19.0992 36.1219L19.1724 42.5175L24.9759 45.8892L24.9028 39.5009C24.8662 27.5122 33.3242 12.8625 43.7558 6.83885C49.0046 3.81244 53.7709 3.53465 57.2139 5.53032L51.4031 2.15865C47.9673 0.155665 43.201 0.433453 37.9523 3.4672C27.5206 9.49081 19.0627 24.1405 19.0992 36.1219Z" fill="#B7C5FD"/>
<path d="M43.7571 6.83949C33.3256 12.8621 24.868 27.5111 24.9021 39.4977L24.9115 39.8516H26.4893L26.4564 38.6004C26.4252 27.6006 34.1895 14.1523 43.7622 8.62544C51.3076 4.269 57.7403 6.13551 60.1492 12.4999H62.0764C59.9134 4.41995 52.5204 1.78003 43.7571 6.83949Z" fill="#6BB5FB"/>
<path d="M58.9595 48.5131C58.9595 48.5131 59.731 71.3997 50.7214 73.5392C39.7814 76.1369 33.5617 60.9804 24.3168 59.1512C24.3168 59.1512 19.5451 61.9612 14.2933 65.8593C6.00036 72.0147 1.06928 81.7079 1.06928 92.0357L0.549683 120.1C0.549683 122.817 2.09615 125.276 4.54559 126.451C11.9521 130.003 27.8173 137.46 58.9005 120.1C58.9005 120.1 58.9312 120.081 58.9899 120.044C70.6823 112.744 77.3602 106.645 78.9764 89.9604C78.9764 89.9603 84.3431 35.7098 58.9595 48.5131Z" fill="#2E4277"/>
<path d="M61.102 52.028C60.8047 52.1249 60.5137 52.2062 60.2061 52.3289C59.7108 58.1255 56.8686 65.6017 49.7545 69.6469C49.7545 69.6469 41.6027 74.3756 31.7805 64.1458C29.457 64.1091 26.9772 59.6777 24.3167 59.1513C24.3167 59.1513 48.2903 107.757 58.9005 120.1C58.9005 120.1 59.7258 119.521 60.9771 118.566L60.8388 118.299C60.8388 118.299 70.069 93.325 61.102 52.028Z" fill="#6BB5FB"/>
<path d="M58.2316 64.8662L53.4239 77.5413L62.8607 105.856L60.9771 118.566L58.9005 120.1L51.7688 110.708L49.731 79.624L42.5997 73.682L58.2316 64.8662Z" fill="#2B3C67"/>
<path d="M58.9595 48.5132C58.9595 48.5132 59.4186 59.818 49.7545 69.6469C49.7545 69.6469 56.7616 74.6965 59.4186 74.6965C59.4186 74.6965 64.3378 63.5328 63.5869 58.1274C62.8359 52.722 59.8833 53.2615 58.9595 48.5132Z" fill="#8FCCFF"/>
<path d="M24.3167 59.1512C24.3167 59.1512 25.836 57.8389 27.5923 54.7655C27.5923 54.7655 36.7726 70.401 49.7545 69.6468C49.7545 69.6468 48.113 77.5101 43.9916 81.2391C43.9916 81.2391 29.9562 73.8679 24.3167 59.1512Z" fill="#8FCCFF"/>
<path d="M25.1076 86.0639H33.803L31.4981 94.4006L58.9005 120.1L24.3167 59.1512C24.3167 59.1512 17.4224 73.9638 25.1076 86.0639Z" fill="#384E85"/>
<path d="M70.7234 66.2186C70.7234 66.2186 68.1564 58.8326 58.9595 48.5132C58.9595 48.5132 63.8336 91.7188 60.8388 118.299C60.8388 118.299 71.4879 87.2007 71.4879 77.4748L66.0089 73.4251L70.7234 66.2186Z" fill="#384E85"/>
<path d="M50.3181 45.8473C42.9343 50.6993 30.7304 47.3003 27.9149 44.4731C27.5047 45.4392 28.0266 46.03 27.5922 46.9906C38.5027 54.2027 51.3902 48.5123 50.9363 48.0743C50.6709 47.1296 50.5787 46.7934 50.3181 45.8473Z" fill="#6BB5FB"/>
<path d="M57.7037 45.0293C57.2686 43.7226 55.857 43.0159 54.5508 43.451L48.9858 45.3044C47.6797 45.7395 46.9735 47.1515 47.4085 48.4583C47.8436 49.765 49.2552 50.4715 50.5614 50.0366L56.1263 48.183C57.4325 47.7479 58.1388 46.3359 57.7037 45.0293Z" fill="#384E85"/>
</svg>
