<svg width="74" height="96" viewBox="0 0 74 96" fill="none" xmlns="http://www.w3.org/2000/svg">
<path d="M69.0717 0.167279C68.6215 -0.0943813 67.9983 -0.0578213 67.311 0.338979L3.3019 37.2946C1.93052 38.0864 0.824757 40.0016 0.829237 41.571L0.962097 92.3619C0.964277 93.1408 1.23954 93.6894 1.68384 93.9476L4.92762 95.8327C4.48326 95.5745 4.20806 95.0259 4.20582 94.247L4.07294 43.4561C4.06852 41.8867 5.17428 39.9715 6.54566 39.1797L70.5547 2.22404C71.242 1.82722 71.8653 1.79072 72.3155 2.05234L69.0717 0.167279Z" fill="#B7C5FD"/>
<path d="M70.5547 2.22411C71.9205 1.43555 73.0335 2.06981 73.0379 3.63923L73.1708 54.4301C73.1752 55.9996 72.0695 57.9148 70.7037 58.7033L6.69461 95.659C5.32323 96.4508 4.21025 95.8165 4.20579 94.2471L4.07295 43.4562C4.06851 41.8867 5.17425 39.9715 6.54565 39.1797L70.5547 2.22411Z" fill="#2E4277"/>
<path d="M69.9651 11.4939L70.0748 55.5054L7.30336 91.7465L7.1936 47.735L69.9651 11.4939Z" fill="white"/>
<path d="M60.5445 11.4522C61.246 11.0472 61.8171 11.3727 61.8194 12.1787C61.8216 12.9847 61.2542 13.9633 60.5528 14.3683C59.855 14.7711 59.2839 14.4499 59.2816 13.6439C59.2793 12.8379 59.8467 11.8551 60.5445 11.4522Z" fill="#D9DDF6"/>
<path d="M68.6902 6.75019C69.3917 6.34521 69.9628 6.67067 69.9651 7.47669C69.9673 8.28271 69.3999 9.26125 68.6985 9.66625C68.0007 10.0691 67.4296 9.74787 67.4273 8.94185C67.425 8.13583 67.9924 7.15305 68.6902 6.75019Z" fill="#D9DDF6"/>
<path d="M64.6173 9.10066C65.3188 8.69568 65.8899 9.02114 65.8922 9.82716C65.8945 10.6332 65.3271 11.6117 64.6256 12.0167C63.9241 12.4217 63.3567 12.0983 63.3544 11.2923C63.3522 10.4863 63.9159 9.50566 64.6173 9.10066Z" fill="#D9DDF6"/>
<path d="M62.456 24.2147C62.4527 23.0837 61.6471 22.6097 60.6498 23.1855L13.3255 50.5082C12.3412 51.0765 11.528 52.4851 11.5311 53.6162L11.544 60.1837C11.5472 61.3147 12.3659 61.7814 13.3502 61.213L60.6745 33.8903C61.6718 33.3146 62.4721 31.9134 62.4688 30.7823L62.456 24.2147ZM13.3478 60.3796C12.752 60.7235 12.2713 60.4496 12.2693 59.765L12.2564 53.1975C12.2544 52.5129 12.7321 51.6856 13.328 51.3415L52.8552 28.5205L52.875 37.5584L13.3478 60.3796Z" fill="#6BB5FB"/>
<path d="M59.2812 30.1733L61.0997 31.2066L60.252 32.675L58.4355 31.638C58.0892 32.0646 57.7016 32.4017 57.3139 32.6256C56.7342 32.9603 56.1541 33.0416 55.7118 32.7896C54.8259 32.2847 54.8212 30.631 55.7014 29.1065C56.1414 28.3443 56.7212 27.7555 57.3018 27.4203C57.8824 27.0851 58.4636 27.0036 58.9066 27.256C59.6469 27.6755 59.7696 28.8949 59.2812 30.1733ZM58.4284 30.6606C59.0411 29.5995 59.0378 28.4506 58.4212 28.0992C58.1129 27.9235 57.7087 27.98 57.3051 28.213C56.9015 28.446 56.4984 28.8556 56.1921 29.3862C55.5794 30.4473 55.5827 31.5962 56.1993 31.9476C56.5076 32.1233 56.9118 32.0669 57.3154 31.8338C57.719 31.6008 58.1221 31.1912 58.4284 30.6606Z" fill="white"/>
<path d="M22.8229 76.0972L22.804 69.4487L13.3091 74.9306L13.328 81.5791L22.8229 76.0972Z" fill="#384E85"/>
<path d="M35.8639 68.5679L35.8451 61.9194L26.3502 67.4013L26.369 74.0498L35.8639 68.5679Z" fill="#6BB5FB"/>
</svg>
